<svg width="14" height="14" viewBox="0 0 14 14" fill="none" xmlns="http://www.w3.org/2000/svg">
<path d="M13.2627 10.5506C13.0099 10.1779 12.6369 9.9044 12.2071 9.77502V7.46445C12.2071 7.19166 12.0988 6.93004 11.9059 6.73714C11.713 6.54425 11.4514 6.43588 11.1786 6.43588H7.56429V4.22531C7.994 4.09593 8.36707 3.82245 8.61983 3.44972C8.88718 3.05546 9.00157 2.57723 8.94154 2.10467C8.88152 1.63212 8.65121 1.19767 8.29378 0.882771C7.93636 0.567872 7.47636 0.394141 7 0.394141C6.52364 0.394141 6.06364 0.567872 5.70622 0.882771C5.34879 1.19767 5.11848 1.63212 5.05846 2.10467C4.99844 2.57723 5.11282 3.05546 5.38017 3.44972C5.63293 3.82245 6.006 4.09593 6.43571 4.22531V6.43588H2.82143C2.54864 6.43588 2.28702 6.54425 2.09412 6.73714C1.90123 6.93004 1.79286 7.19166 1.79286 7.46445V9.77502C1.36314 9.9044 0.990072 10.1779 0.737317 10.5506C0.469965 10.9449 0.355581 11.4231 0.415604 11.8957C0.475626 12.3682 0.705936 12.8027 1.06336 13.1176C1.42079 13.4325 1.88079 13.6062 2.35715 13.6062C2.8335 13.6062 3.2935 13.4325 3.65093 13.1176C4.00836 12.8027 4.23867 12.3682 4.29869 11.8957C4.35871 11.4231 4.24433 10.9449 3.97698 10.5506C3.72422 10.1779 3.35115 9.9044 2.92143 9.77502V7.56445H11.0786V9.77502C10.6488 9.9044 10.2758 10.1779 10.023 10.5506C9.75567 10.9449 9.64129 11.4231 9.70131 11.8957C9.76133 12.3682 9.99164 12.8027 10.3491 13.1176C10.7065 13.4325 11.1665 13.6062 11.6429 13.6062C12.1192 13.6062 12.5792 13.4325 12.9366 13.1176C13.2941 12.8027 13.5244 12.3682 13.5844 11.8957C13.6444 11.4231 13.53 10.9449 13.2627 10.5506ZM3.18572 11.643C3.18572 11.8069 3.13712 11.9671 3.04608 12.1033C2.95503 12.2396 2.82563 12.3458 2.67423 12.4085C2.52283 12.4712 2.35623 12.4876 2.1955 12.4557C2.03477 12.4237 1.88714 12.3448 1.77126 12.2289C1.65538 12.113 1.57647 11.9654 1.5445 11.8047C1.51253 11.6439 1.52893 11.4773 1.59165 11.3259C1.65436 11.1745 1.76056 11.0451 1.89682 10.9541C2.03307 10.863 2.19327 10.8144 2.35715 10.8144C2.5769 10.8144 2.78765 10.9017 2.94303 11.0571C3.09842 11.2125 3.18572 11.4233 3.18572 11.643ZM6.17143 2.35731C6.17143 2.19343 6.22002 2.03324 6.31107 1.89698C6.40211 1.76072 6.53152 1.65452 6.68292 1.59181C6.83432 1.5291 7.00092 1.51269 7.16165 1.54466C7.32237 1.57663 7.47001 1.65554 7.58589 1.77142C7.70177 1.8873 7.78068 2.03494 7.81265 2.19566C7.84462 2.35639 7.82821 2.52299 7.7655 2.67439C7.70279 2.82579 7.59659 2.9552 7.46033 3.04624C7.32407 3.13729 7.16388 3.18588 7 3.18588C6.78025 3.18588 6.5695 3.09859 6.41411 2.9432C6.25872 2.78781 6.17143 2.57706 6.17143 2.35731ZM11.6429 12.4716C11.479 12.4716 11.3188 12.423 11.1825 12.332C11.0463 12.2409 10.9401 12.1115 10.8774 11.9601C10.8146 11.8087 10.7982 11.6421 10.8302 11.4814C10.8622 11.3206 10.9411 11.173 11.057 11.0571C11.1728 10.9413 11.3205 10.8623 11.4812 10.8304C11.6419 10.7984 11.8085 10.8148 11.9599 10.8775C12.1113 10.9402 12.2407 11.0464 12.3318 11.1827C12.4228 11.3189 12.4714 11.4791 12.4714 11.643C12.4714 11.8628 12.3841 12.0735 12.2287 12.2289C12.0734 12.3843 11.8626 12.4716 11.6429 12.4716Z" fill="#202B5C" stroke="#202B5C" stroke-width="0.2"/>
</svg>
