<svg width="30" height="30" viewBox="0 0 30 30" fill="none" xmlns="http://www.w3.org/2000/svg">
<rect width="30" height="30" fill="#F3F4F8"/>
<path d="M21.3047 11.478H8.99039C8.80687 11.4835 8.63296 11.5613 8.50656 11.6944C8.38015 11.8276 8.31152 12.0053 8.3156 12.1889V18.5035C8.31152 18.687 8.38015 18.8648 8.50656 18.9979C8.63296 19.1311 8.80687 19.2089 8.99039 19.2143H21.3047C21.4882 19.2089 21.6621 19.1311 21.7885 18.9979C21.9149 18.8648 21.9836 18.687 21.9795 18.5035V12.1161C21.9581 11.9482 21.8792 11.7928 21.7562 11.6764C21.6332 11.5601 21.4736 11.49 21.3047 11.478Z" fill="#FBB5AF" stroke="#455A64"/>
<path d="M18.1174 16.4106L16.2202 14.5134H20.0146L18.1174 16.4106Z" fill="#455A64"/>
</svg>
