<svg width="30" height="30" viewBox="0 0 30 30" fill="none" xmlns="http://www.w3.org/2000/svg">
<rect width="30" height="30" fill="#F3F4F8"/>
<path fill-rule="evenodd" clip-rule="evenodd" d="M23.1578 9.99979H7.83937C7.41968 9.99979 6.99998 10.5145 6.99998 11.2866V22.717C6.99998 23.3604 7.33574 24.0038 7.83937 24.0038H23.1578C23.5775 24.0038 23.9972 23.4891 23.9972 22.717V11.1579C23.9132 10.5145 23.5775 9.99978 23.1578 9.99978V9.99979Z" fill="#CBE0F5" stroke="#455A64"/>
<path fill-rule="evenodd" clip-rule="evenodd" d="M21.2389 15.7857C21.2031 16.1675 21.0629 16.4654 20.8184 16.6792C20.5739 16.8931 20.2487 17 19.8428 17C19.5591 17 19.3093 16.9324 19.0933 16.7972C18.8774 16.662 18.7107 16.4699 18.5933 16.2208C18.4759 15.9717 18.4148 15.6825 18.4099 15.3531V15.0188C18.4099 14.6812 18.4694 14.3838 18.5884 14.1265C18.7074 13.8693 18.8782 13.671 19.1007 13.5317C19.3232 13.3924 19.5803 13.3228 19.8721 13.3228C20.265 13.3228 20.5812 13.4301 20.8208 13.6448C21.0604 13.8594 21.1998 14.1626 21.2389 14.5542H20.6228C20.5934 14.297 20.5188 14.1114 20.399 13.9975C20.2792 13.8836 20.1036 13.8267 19.8721 13.8267C19.6032 13.8267 19.3965 13.9254 19.2523 14.1228C19.108 14.3203 19.0343 14.6099 19.031 14.9918V15.3089C19.031 15.6956 19.0999 15.9906 19.2376 16.1937C19.3754 16.3969 19.5771 16.4985 19.8428 16.4985C20.0857 16.4985 20.2682 16.4437 20.3905 16.3339C20.5127 16.2241 20.5902 16.0413 20.6228 15.7857L21.2389 15.7857ZM15.0955 14.8785H15.7018C15.8942 14.8785 16.0446 14.8346 16.153 14.747C16.2614 14.6593 16.3156 14.5352 16.3156 14.3746C16.3156 14.1976 16.2654 14.0698 16.1652 13.9911C16.0649 13.9125 15.9089 13.8731 15.697 13.8731H15.0955L15.0955 14.8785ZM15.0955 15.3353V16.4537H15.7825C15.9765 16.4537 16.1281 16.4054 16.2373 16.3087C16.3465 16.212 16.4011 16.0776 16.4011 15.9056C16.4011 15.5336 16.2121 15.3435 15.8339 15.3353L15.0955 15.3353ZM14.4772 16.9508V13.3718H15.6973C16.0999 13.3718 16.4064 13.453 16.6166 13.6152C16.8269 13.7774 16.9321 14.0191 16.9321 14.3403C16.9321 14.5042 16.8881 14.6517 16.8 14.7828C16.712 14.9138 16.5832 15.0155 16.4137 15.0876C16.606 15.14 16.7548 15.2387 16.8599 15.3837C16.9651 15.5288 17.0177 15.7029 17.0177 15.9061C17.0177 16.242 16.9105 16.5001 16.6961 16.6804C16.4818 16.8606 16.1749 16.9507 15.7755 16.9507L14.4772 16.9508ZM11.0449 15.616H12.0767L11.5608 14.1313L11.0449 15.616ZM12.2511 16.1175H10.872L10.5835 16.9507H9.94043L11.2852 13.3718H11.8403L13.1875 16.9507H12.542L12.2511 16.1175Z" fill="#455A64"/>
</svg>
