<svg width="30" height="30" viewBox="0 0 30 30" fill="none" xmlns="http://www.w3.org/2000/svg">
<rect width="30" height="30" fill="#F3F4F8"/>
<path d="M22.6124 12.6597H15.8548C15.754 12.6625 15.6584 12.7051 15.589 12.7783C15.5196 12.8514 15.482 12.9491 15.4845 13.05V16.5138C15.4822 16.6146 15.5199 16.7121 15.5893 16.7852C15.6586 16.8584 15.7541 16.9011 15.8548 16.9041H22.6124C22.7132 16.9013 22.8088 16.8587 22.8783 16.7855C22.9477 16.7123 22.9853 16.6146 22.9828 16.5138V13.0096C22.971 12.9175 22.9277 12.8323 22.8602 12.7684C22.7926 12.7046 22.7051 12.6662 22.6124 12.6597Z" fill="#B4B9F8" stroke="#455A64"/>
<path d="M22.5958 18.6401H15.8382C15.7374 18.6429 15.6418 18.6856 15.5724 18.7587C15.503 18.8319 15.4654 18.9296 15.4679 19.0304V22.4943C15.4656 22.595 15.5033 22.6926 15.5727 22.7657C15.642 22.8388 15.7375 22.8815 15.8382 22.8846H22.5958C22.6966 22.8818 22.7922 22.8391 22.8617 22.766C22.9311 22.6928 22.9687 22.5951 22.9662 22.4943V18.9901C22.9544 18.898 22.9111 18.8127 22.8436 18.7489C22.776 18.6851 22.6885 18.6467 22.5958 18.6401Z" fill="#FBB5AF" stroke="#455A64"/>
<path d="M17.7315 15.1153H17.1157L16.9868 15.4852H16.7002L17.3005 13.8961H17.5481L18.1493 15.4852H17.8613L17.7315 15.1153ZM17.1937 14.8938H17.6544L17.4241 14.2346L17.1937 14.8938ZM18.7252 15.4852V13.8961H19.2696C19.4145 13.8864 19.5586 13.9243 19.6798 14.0042C19.728 14.0427 19.7661 14.0922 19.7909 14.1486C19.8156 14.205 19.8263 14.2666 19.822 14.3281C19.8228 14.3979 19.8023 14.4664 19.7631 14.5243C19.7202 14.5853 19.6603 14.6323 19.5908 14.6594C19.6708 14.679 19.7414 14.726 19.7901 14.7923C19.8381 14.8599 19.8628 14.9412 19.8606 15.024C19.8645 15.0885 19.8536 15.153 19.8287 15.2126C19.8038 15.2721 19.7656 15.3252 19.7171 15.3678C19.5986 15.4549 19.4531 15.4975 19.3064 15.4878L18.7252 15.4852ZM19.0012 14.7684V15.265H19.3082C19.3818 15.2695 19.4544 15.2465 19.5119 15.2003C19.5364 15.178 19.5556 15.1505 19.5682 15.1199C19.5808 15.0892 19.5866 15.0562 19.585 15.0231C19.5894 14.9888 19.5858 14.954 19.5746 14.9213C19.5634 14.8886 19.5448 14.8588 19.5204 14.8344C19.4959 14.8099 19.4662 14.7914 19.4335 14.7802C19.4008 14.769 19.3659 14.7654 19.3316 14.7697L19.0012 14.7684ZM19.0012 14.5655H19.2718C19.344 14.5693 19.4152 14.548 19.4734 14.5053C19.4976 14.4853 19.5168 14.46 19.5294 14.4313C19.542 14.4026 19.5477 14.3713 19.5461 14.34C19.5489 14.3084 19.5443 14.2765 19.5326 14.2469C19.521 14.2174 19.5025 14.191 19.4787 14.1699C19.4166 14.1302 19.3431 14.1118 19.2696 14.1176H19.0012V14.5655ZM21.7434 14.9682C21.7361 15.1207 21.6685 15.2642 21.5555 15.3669C21.4329 15.4664 21.2778 15.517 21.12 15.5091C21.0024 15.5119 20.8864 15.4812 20.7856 15.4205C20.6884 15.3586 20.6114 15.2696 20.5641 15.1645C20.5094 15.0434 20.4814 14.9119 20.4821 14.779V14.6306C20.4794 14.4944 20.5066 14.3592 20.5619 14.2346C20.6099 14.1252 20.6895 14.0327 20.7905 13.9688C20.8941 13.9058 21.0135 13.8737 21.1347 13.8762C21.2882 13.8688 21.4389 13.9194 21.5568 14.018C21.6686 14.1235 21.7354 14.268 21.7434 14.4215H21.4682C21.4649 14.33 21.4296 14.2426 21.3686 14.1743C21.3029 14.1196 21.2186 14.0924 21.1333 14.0986C21.0798 14.096 21.0266 14.1069 20.9783 14.1301C20.93 14.1533 20.8883 14.1881 20.8569 14.2315C20.7848 14.3468 20.7503 14.4816 20.7581 14.6173V14.7582C20.7494 14.8954 20.7815 15.0321 20.8503 15.1512C20.8798 15.1951 20.9202 15.2307 20.9675 15.2544C21.0149 15.2781 21.0676 15.2891 21.1205 15.2863C21.2082 15.2929 21.2953 15.2668 21.365 15.2132C21.4275 15.1471 21.4642 15.0608 21.4687 14.97L21.7434 14.9682Z" fill="#455A64"/>
<path d="M17.0195 21.6375V19.7477H17.5777C17.7327 19.745 17.8855 19.7836 18.0207 19.8593C18.1496 19.9333 18.254 20.0434 18.3211 20.1761C18.3941 20.3218 18.4306 20.4831 18.4274 20.6461V20.7409C18.4314 20.9046 18.3952 21.0667 18.322 21.2131C18.2537 21.3457 18.1476 21.455 18.0172 21.5272C17.8779 21.6027 17.7214 21.6407 17.5631 21.6375H17.0195ZM17.3478 20.0126V21.3753H17.5618C17.6361 21.3802 17.7106 21.3682 17.7797 21.3402C17.8487 21.3122 17.9106 21.2689 17.9605 21.2136C18.0597 21.0807 18.1088 20.9171 18.0991 20.7515V20.6465C18.1108 20.4792 18.0638 20.313 17.9662 20.1765C17.9184 20.1214 17.8585 20.0782 17.7912 20.05C17.7239 20.0219 17.651 20.0097 17.5782 20.0144L17.3478 20.0126ZM19.9726 20.7958H19.1951V21.3753H20.1024V21.6375H18.8651V19.7477H20.0931V20.0135H19.1951V20.5345H19.9726V20.7958ZM21.5705 20.8401H20.8085V21.6375H20.4803V19.7477H21.6808V20.0135H20.8085V20.5743H21.5674L21.5705 20.8401Z" fill="#455A64"/>
<path d="M22.6488 9.5791H16.2456C16.15 9.57962 16.0594 9.58755 15.9937 9.60116C15.9279 9.61477 15.8923 9.63294 15.8946 9.6517V10.296C15.8925 10.3147 15.9282 10.3329 15.9939 10.3465C16.0597 10.3601 16.1501 10.368 16.2456 10.3686H22.6488C22.7443 10.3681 22.8349 10.3601 22.9007 10.3465C22.9664 10.3329 23.0021 10.3147 22.9997 10.296V9.6442C22.9885 9.62706 22.9475 9.6112 22.8835 9.59933C22.8195 9.58747 22.7366 9.58032 22.6488 9.5791Z" fill="#455A64" stroke="#455A64"/>
<path d="M13.2533 20.6318H8.27303C8.19873 20.6324 8.12827 20.6403 8.0771 20.6539C8.02594 20.6675 7.99824 20.6857 8.00009 20.7044V21.3487C7.99842 21.3675 8.02617 21.3856 8.0773 21.3992C8.12843 21.4128 8.19879 21.4207 8.27303 21.4213H13.2533C13.3276 21.4208 13.398 21.4129 13.4492 21.3993C13.5004 21.3856 13.5281 21.3675 13.5262 21.3487V20.6969C13.5176 20.6798 13.4856 20.6639 13.4359 20.6521C13.3861 20.6402 13.3216 20.633 13.2533 20.6318Z" fill="#455A64" stroke="#455A64"/>
<path d="M13.2533 14.3159H8.27303C8.19873 14.3164 8.12827 14.3244 8.0771 14.338C8.02594 14.3516 7.99824 14.3698 8.00009 14.3885V15.0328C7.99842 15.0515 8.02617 15.0697 8.0773 15.0833C8.12843 15.0969 8.19879 15.1048 8.27303 15.1054H13.2533C13.3276 15.1049 13.398 15.0969 13.4492 15.0833C13.5004 15.0697 13.5281 15.0516 13.5262 15.0328V14.381C13.5176 14.3639 13.4856 14.348 13.4359 14.3362C13.3861 14.3243 13.3216 14.3171 13.2533 14.3159Z" fill="#455A64" stroke="#455A64"/>
</svg>
