<svg width="30" height="30" viewBox="0 0 30 30" fill="none" xmlns="http://www.w3.org/2000/svg">
<rect width="30" height="30" fill="#F3F4F8"/>
<path d="M20.0833 8.1377L20.5248 9.49703H21.954L20.7972 10.3369L21.2387 11.6962L20.082 10.8557L18.9252 11.6962L19.3667 10.3369L18.21 9.49703H19.6446L20.0833 8.1377Z" fill="#455A64"/>
<path d="M22.0004 16.2086V16.6118C22.0004 16.6775 21.9743 16.7405 21.9278 16.787C21.8813 16.8334 21.8183 16.8595 21.7526 16.8595H18.4138C18.3481 16.8595 18.2851 16.8334 18.2386 16.787C18.1921 16.7405 18.166 16.6775 18.166 16.6118V13.2737C18.166 13.2079 18.1921 13.1449 18.2386 13.0985C18.2851 13.052 18.3481 13.0259 18.4138 13.0259H21.7519C21.8176 13.0259 21.8806 13.052 21.9271 13.0985C21.9736 13.1449 21.9997 13.2079 21.9997 13.2737V16.2086H22.0004Z" fill="#FCD5B8" stroke="#455A64" stroke-miterlimit="10" stroke-linecap="round"/>
<path d="M16.9174 11.1827V11.5859C16.9174 11.6516 16.8913 11.7146 16.8448 11.7611C16.7983 11.8076 16.7353 11.8337 16.6696 11.8337H13.3308C13.2651 11.8337 13.202 11.8076 13.1556 11.7611C13.1091 11.7146 13.083 11.6516 13.083 11.5859V8.24777C13.083 8.18206 13.1091 8.11904 13.1556 8.07257C13.202 8.0261 13.2651 8 13.3308 8H16.6689C16.7346 8 16.7976 8.0261 16.8441 8.07257C16.8906 8.11904 16.9167 8.18206 16.9167 8.24777V11.1827H16.9174Z" fill="#FCD5B8" stroke="#455A64" stroke-miterlimit="10" stroke-linecap="round"/>
<path d="M13.083 21.235V21.6381C13.083 21.7038 13.1091 21.7669 13.1556 21.8133C13.202 21.8598 13.2651 21.8859 13.3308 21.8859H16.6689C16.7346 21.8859 16.7976 21.8598 16.8441 21.8133C16.8906 21.7669 16.9167 21.7038 16.9167 21.6381V18.3C16.9167 18.2343 16.8906 18.1713 16.8441 18.1248C16.7976 18.0783 16.7346 18.0522 16.6689 18.0522H13.3315C13.2658 18.0522 13.2027 18.0783 13.1563 18.1248C13.1098 18.1713 13.0837 18.2343 13.0837 18.3V21.235H13.083Z" fill="#FCD5B8" stroke="#455A64" stroke-miterlimit="10" stroke-linecap="round"/>
<path d="M16.9174 16.2086V16.6118C16.9174 16.6775 16.8913 16.7405 16.8448 16.787C16.7983 16.8334 16.7353 16.8595 16.6696 16.8595H13.3308C13.2651 16.8595 13.202 16.8334 13.1556 16.787C13.1091 16.7405 13.083 16.6775 13.083 16.6118V13.2737C13.083 13.2079 13.1091 13.1449 13.1556 13.0985C13.202 13.052 13.2651 13.0259 13.3308 13.0259H16.6689C16.7346 13.0259 16.7976 13.052 16.8441 13.0985C16.8906 13.1449 16.9167 13.2079 16.9167 13.2737V16.2086H16.9174Z" fill="#FCD5B8" stroke="#455A64" stroke-miterlimit="10" stroke-linecap="round"/>
<path d="M8 21.235V21.6381C8 21.7038 8.0261 21.7669 8.07257 21.8133C8.11904 21.8598 8.18206 21.8859 8.24778 21.8859H11.5859C11.6516 21.8859 11.7146 21.8598 11.7611 21.8133C11.8076 21.7669 11.8337 21.7038 11.8337 21.6381V18.3C11.8337 18.2343 11.8076 18.1713 11.7611 18.1248C11.7146 18.0783 11.6516 18.0522 11.5859 18.0522H8.24778C8.18206 18.0522 8.11904 18.0783 8.07257 18.1248C8.0261 18.1713 8 18.2343 8 18.3V21.235Z" fill="#FCD5B8" stroke="#455A64" stroke-miterlimit="10" stroke-linecap="round"/>
<path d="M18.165 21.235V21.6381C18.165 21.7038 18.1911 21.7669 18.2376 21.8133C18.2841 21.8598 18.3471 21.8859 18.4128 21.8859H21.7509C21.8166 21.8859 21.8797 21.8598 21.9261 21.8133C21.9726 21.7669 21.9987 21.7038 21.9987 21.6381V18.3C21.9987 18.2343 21.9726 18.1713 21.9261 18.1248C21.8797 18.0783 21.8166 18.0522 21.7509 18.0522H18.4135C18.3478 18.0522 18.2848 18.0783 18.2383 18.1248C18.1918 18.1713 18.1657 18.2343 18.1657 18.3V21.235H18.165Z" fill="#FCD5B8" stroke="#455A64" stroke-miterlimit="10" stroke-linecap="round"/>
<path d="M11.833 16.2086V16.6118C11.833 16.6775 11.8069 16.7405 11.7604 16.787C11.7139 16.8334 11.6509 16.8595 11.5852 16.8595H8.24778C8.18218 16.8595 8.11926 16.8335 8.07281 16.7872C8.02637 16.7409 8.00018 16.6781 8 16.6125V13.2737C8 13.2079 8.0261 13.1449 8.07257 13.0985C8.11904 13.052 8.18206 13.0259 8.24778 13.0259H11.5859C11.6516 13.0259 11.7146 13.052 11.7611 13.0985C11.8076 13.1449 11.8337 13.2079 11.8337 13.2737V16.2086H11.833Z" fill="#FCD5B8" stroke="#455A64" stroke-miterlimit="10" stroke-linecap="round"/>
<path d="M11.833 11.1827V11.5859C11.833 11.6516 11.8069 11.7146 11.7604 11.7611C11.7139 11.8076 11.6509 11.8337 11.5852 11.8337H8.24778C8.18218 11.8337 8.11926 11.8077 8.07281 11.7613C8.02637 11.715 8.00018 11.6522 8 11.5866V8.24777C8 8.18206 8.0261 8.11904 8.07257 8.07257C8.11904 8.0261 8.18206 8 8.24778 8H11.5859C11.6516 8 11.7146 8.0261 11.7611 8.07257C11.8076 8.11904 11.8337 8.18206 11.8337 8.24777V11.1827H11.833Z" fill="#FCD5B8" stroke="#455A64" stroke-miterlimit="10" stroke-linecap="round"/>
</svg>
