<svg width="30" height="30" viewBox="0 0 30 30" fill="none" xmlns="http://www.w3.org/2000/svg">
<rect width="30" height="30" fill="#F3F4F8"/>
<path d="M19.4273 12.3486H13.1202C13.0261 12.3512 12.9369 12.391 12.8721 12.4593C12.8073 12.5276 12.7722 12.6188 12.7745 12.7129V15.9458C12.7724 16.0399 12.8076 16.1309 12.8723 16.1992C12.9371 16.2674 13.0262 16.3073 13.1202 16.3101H19.4273C19.5214 16.3075 19.6106 16.2677 19.6754 16.1994C19.7402 16.1311 19.7753 16.0399 19.7729 15.9458V12.6753C19.762 12.5893 19.7215 12.5097 19.6585 12.4502C19.5955 12.3906 19.5138 12.3547 19.4273 12.3486Z" fill="#FCD5B8" stroke="#455A64"/>
<path d="M19.4126 17.9302H13.1055C13.0114 17.9328 12.9222 17.9726 12.8574 18.0409C12.7926 18.1091 12.7575 18.2003 12.7599 18.2944V21.5274C12.7578 21.6214 12.7929 21.7125 12.8577 21.7807C12.9224 21.849 13.0115 21.8888 13.1055 21.8916H19.4126C19.5067 21.889 19.5959 21.8492 19.6607 21.7809C19.7255 21.7127 19.7606 21.6215 19.7583 21.5274V18.2568C19.7473 18.1708 19.7069 18.0913 19.6438 18.0317C19.5808 17.9721 19.4991 17.9363 19.4126 17.9302Z" fill="#C1EFE2" stroke="#455A64"/>
<path d="M14.8717 14.6405H14.297L14.1767 14.9858H13.9092L14.4694 13.5027H14.7006L15.2616 14.9858H14.9929L14.8717 14.6405ZM14.3698 14.4338H14.7998L14.5848 13.8186L14.3698 14.4338ZM15.7992 14.9858V13.5027H16.3073C16.4425 13.4936 16.577 13.529 16.6902 13.6036C16.7351 13.6394 16.7707 13.6857 16.7938 13.7383C16.8169 13.791 16.8269 13.8484 16.8229 13.9058C16.8236 13.971 16.8045 14.0349 16.7679 14.089C16.7279 14.1459 16.6719 14.1898 16.6071 14.2151C16.6817 14.2333 16.7476 14.2772 16.7931 14.3391C16.8378 14.4022 16.8609 14.4781 16.8589 14.5554C16.8625 14.6155 16.8523 14.6757 16.8291 14.7313C16.8059 14.7869 16.7702 14.8365 16.7249 14.8762C16.6143 14.9576 16.4786 14.9972 16.3416 14.9883L15.7992 14.9858ZM16.0567 14.3168V14.7803H16.3433C16.412 14.7845 16.4798 14.763 16.5335 14.7199C16.5563 14.699 16.5742 14.6734 16.586 14.6448C16.5978 14.6162 16.6031 14.5854 16.6017 14.5545C16.6057 14.5225 16.6024 14.49 16.5919 14.4595C16.5815 14.4289 16.5642 14.4012 16.5414 14.3784C16.5185 14.3555 16.4908 14.3382 16.4603 14.3278C16.4297 14.3173 16.3972 14.314 16.3652 14.318L16.0567 14.3168ZM16.0567 14.1274H16.3094C16.3767 14.1309 16.4432 14.1111 16.4975 14.0712C16.5201 14.0526 16.538 14.0289 16.5498 14.0021C16.5616 13.9754 16.5669 13.9462 16.5653 13.917C16.568 13.8874 16.5637 13.8577 16.5528 13.8301C16.5419 13.8025 16.5246 13.7779 16.5025 13.7582C16.4445 13.7211 16.3759 13.704 16.3073 13.7094H16.0567V14.1274ZM18.6161 14.5033C18.6093 14.6456 18.5463 14.7795 18.4408 14.8754C18.3263 14.9682 18.1816 15.0155 18.0344 15.0081C17.9246 15.0107 17.8163 14.982 17.7222 14.9254C17.6315 14.8676 17.5596 14.7845 17.5155 14.6864C17.4644 14.5734 17.4383 14.4507 17.439 14.3267V14.1882C17.4364 14.061 17.4618 13.9348 17.5134 13.8186C17.5582 13.7165 17.6325 13.6301 17.7268 13.5705C17.8235 13.5117 17.9349 13.4818 18.048 13.4841C18.1913 13.4772 18.332 13.5244 18.4421 13.6164C18.5464 13.7148 18.6087 13.8498 18.6161 13.993H18.3594C18.3562 13.9076 18.3233 13.826 18.2663 13.7623C18.2051 13.7112 18.1264 13.6859 18.0468 13.6916C17.9969 13.6893 17.9471 13.6993 17.9021 13.721C17.857 13.7427 17.8181 13.7752 17.7888 13.8157C17.7215 13.9233 17.6893 14.0491 17.6966 14.1758V14.3073C17.6884 14.4353 17.7184 14.5629 17.7826 14.674C17.8101 14.7151 17.8478 14.7483 17.892 14.7704C17.9362 14.7925 17.9854 14.8027 18.0348 14.8001C18.1167 14.8063 18.1979 14.782 18.263 14.7319C18.3213 14.6702 18.3556 14.5897 18.3598 14.5049L18.6161 14.5033Z" fill="#455A64"/>
<path d="M14.207 20.7279V18.964H14.728C14.8726 18.9615 15.0153 18.9975 15.1415 19.0682C15.2618 19.1372 15.3592 19.24 15.4218 19.3638C15.49 19.4998 15.524 19.6504 15.521 19.8025V19.891C15.5248 20.0437 15.491 20.1951 15.4226 20.3317C15.3589 20.4555 15.2599 20.5575 15.1382 20.6249C15.0082 20.6953 14.8622 20.7308 14.7144 20.7279H14.207ZM14.5134 19.2112V20.4831H14.7131C14.7825 20.4877 14.8521 20.4765 14.9165 20.4503C14.981 20.4242 15.0387 20.3838 15.0852 20.3322C15.1778 20.2081 15.2237 20.0554 15.2147 19.9009V19.8029C15.2255 19.6467 15.1817 19.4916 15.0906 19.3642C15.046 19.3128 14.99 19.2724 14.9272 19.2462C14.8644 19.2199 14.7964 19.2085 14.7284 19.2129L14.5134 19.2112ZM16.9632 19.9423H16.2376V20.4831H17.0844V20.7279H15.9295V18.964H17.0757V19.2121H16.2376V19.6983H16.9632V19.9423ZM18.4546 19.9836H17.7434V20.7279H17.4371V18.964H18.5576V19.2121H17.7434V19.7355H18.4517L18.4546 19.9836Z" fill="#455A64"/>
<path d="M19.4612 9.47363H13.4849C13.3957 9.47412 13.3112 9.48152 13.2498 9.49422C13.1884 9.50692 13.1551 9.52388 13.1573 9.54139V10.1427C13.1553 10.1602 13.1886 10.1772 13.25 10.1898C13.3113 10.2025 13.3958 10.21 13.4849 10.2105H19.4612C19.5503 10.21 19.6349 10.2026 19.6963 10.1899C19.7577 10.1772 19.7909 10.1602 19.7887 10.1427V9.53439C19.7783 9.51839 19.74 9.50359 19.6803 9.49252C19.6206 9.48144 19.5431 9.47477 19.4612 9.47363Z" fill="#455A64" stroke="#455A64"/>
<path d="M10.6921 19.7896H6.04389C5.97454 19.79 5.90878 19.7974 5.86103 19.8101C5.81327 19.8228 5.78742 19.8398 5.78914 19.8573V20.4586C5.78758 20.4761 5.81349 20.4931 5.86121 20.5058C5.90893 20.5185 5.9746 20.5259 6.04389 20.5264H10.6921C10.7615 20.5259 10.8272 20.5185 10.875 20.5058C10.9227 20.4931 10.9486 20.4761 10.9469 20.4586V19.8503C10.9388 19.8343 10.909 19.8195 10.8625 19.8084C10.8161 19.7974 10.7559 19.7907 10.6921 19.7896Z" fill="#455A64" stroke="#455A64"/>
<path d="M24.1013 19.7896H22.1092C22.0795 19.79 22.0513 19.7974 22.0308 19.8101C22.0104 19.8228 21.9993 19.8398 22 19.8573V20.4586C21.9994 20.4761 22.0105 20.4931 22.0309 20.5058C22.0514 20.5185 22.0795 20.5259 22.1092 20.5264H24.1013C24.131 20.5259 24.1592 20.5185 24.1797 20.5058C24.2002 20.4931 24.2112 20.4761 24.2105 20.4586V19.8503C24.207 19.8343 24.1943 19.8195 24.1743 19.8084C24.1544 19.7974 24.1286 19.7907 24.1013 19.7896Z" fill="#455A64" stroke="#455A64"/>
<path d="M10.6921 13.8945H6.04389C5.97454 13.895 5.90878 13.9024 5.86103 13.9151C5.81327 13.9278 5.78742 13.9448 5.78914 13.9623V14.5636C5.78758 14.5811 5.81349 14.598 5.86121 14.6107C5.90893 14.6234 5.9746 14.6309 6.04389 14.6314H10.6921C10.7615 14.6309 10.8272 14.6235 10.875 14.6108C10.9227 14.5981 10.9486 14.5811 10.9469 14.5636V13.9553C10.9388 13.9393 10.909 13.9245 10.8625 13.9134C10.8161 13.9023 10.7559 13.8957 10.6921 13.8945Z" fill="#455A64" stroke="#455A64"/>
<path d="M24.1013 13.8945H22.1092C22.0795 13.895 22.0513 13.9024 22.0308 13.9151C22.0104 13.9278 21.9993 13.9448 22 13.9623V14.5636C21.9994 14.5811 22.0105 14.598 22.0309 14.6107C22.0514 14.6234 22.0795 14.6309 22.1092 14.6314H24.1013C24.131 14.6309 24.1592 14.6235 24.1797 14.6108C24.2002 14.5981 24.2112 14.5811 24.2105 14.5636V13.9553C24.207 13.9393 24.1943 13.9245 24.1743 13.9134C24.1544 13.9023 24.1286 13.8957 24.1013 13.8945Z" fill="#455A64" stroke="#455A64"/>
</svg>
