<svg width="30" height="30" viewBox="0 0 30 30" fill="none" xmlns="http://www.w3.org/2000/svg">
<rect width="30" height="30" fill="#F3F4F8"/>
<path d="M15.7117 11.6523H9.2486C9.15222 11.655 9.06083 11.6958 8.99448 11.7658C8.92813 11.8358 8.89223 11.9292 8.89465 12.0256V15.3397C8.8924 15.436 8.92836 15.5293 8.99467 15.5993C9.06099 15.6692 9.15227 15.7101 9.2486 15.7129H15.7117C15.8081 15.7102 15.8995 15.6694 15.9658 15.5995C16.0322 15.5295 16.0681 15.4361 16.0657 15.3397V11.9883C16.0545 11.9001 16.0132 11.8184 15.9486 11.7572C15.8841 11.6959 15.8004 11.6589 15.7117 11.6523Z" fill="#FBB5AF" stroke="#455A64"/>
<path d="M14.0385 14.2407L13.0428 13.245H15.0342L14.0385 14.2407Z" fill="#455A64"/>
<path d="M15.7117 17.3608H9.2486C9.15222 17.3635 9.06083 17.4043 8.99448 17.4743C8.92813 17.5443 8.89223 17.6377 8.89465 17.7341V21.0482C8.8924 21.1445 8.92836 21.2378 8.99467 21.3078C9.06099 21.3777 9.15227 21.4185 9.2486 21.4214H15.7117C15.8081 21.4187 15.8995 21.3779 15.9658 21.308C16.0322 21.238 16.0681 21.1446 16.0657 21.0482V17.6968C16.0545 17.6086 16.0132 17.5269 15.9486 17.4657C15.8841 17.4044 15.8004 17.3674 15.7117 17.3608Z" fill="#F3F4F8" stroke="#455A64"/>
<path d="M14.0385 19.9492L13.0428 18.9535H15.0342L14.0385 19.9492Z" fill="#455A64"/>
<path d="M24.7049 11.5791H18.2418C18.1454 11.5818 18.054 11.6226 17.9876 11.6926C17.9213 11.7625 17.8854 11.8559 17.8878 11.9523V15.2664C17.8856 15.3628 17.9215 15.4561 17.9878 15.526C18.0542 15.596 18.1454 15.6368 18.2418 15.6397H24.7049C24.8013 15.637 24.8927 15.5962 24.959 15.5262C25.0254 15.4562 25.0613 15.3628 25.0588 15.2664V11.9151C25.0477 11.8268 25.0063 11.7452 24.9418 11.6839C24.8773 11.6227 24.7936 11.5857 24.7049 11.5791Z" fill="#F3F4F8" stroke="#455A64"/>
<path d="M23.0307 14.1675L22.0349 13.1718H24.0264L23.0307 14.1675Z" fill="#455A64"/>
<path d="M24.7049 17.3608H18.2418C18.1454 17.3635 18.054 17.4043 17.9876 17.4743C17.9213 17.5443 17.8854 17.6377 17.8878 17.7341V21.0482C17.8856 21.1445 17.9215 21.2378 17.9878 21.3078C18.0542 21.3777 18.1454 21.4185 18.2418 21.4214H24.7049C24.8013 21.4187 24.8927 21.3779 24.959 21.308C25.0254 21.238 25.0613 21.1446 25.0588 21.0482V17.6968C25.0477 17.6086 25.0063 17.5269 24.9418 17.4657C24.8773 17.4044 24.7936 17.3674 24.7049 17.3608Z" fill="#FBB5AF" stroke="#455A64"/>
<path d="M23.0307 19.9492L22.0349 18.9535H24.0264L23.0307 19.9492Z" fill="#455A64"/>
</svg>
