<svg width="30" height="30" viewBox="0 0 30 30" fill="none" xmlns="http://www.w3.org/2000/svg">
<rect width="30" height="30" fill="#F3F4F8"/>
<path d="M12.8842 15.6816H9.32633C8.99762 15.6842 8.68335 15.817 8.45246 16.051C8.22157 16.2849 8.09292 16.6009 8.09475 16.9296V20.5491C8.0931 20.8778 8.22181 21.1937 8.45266 21.4276C8.68351 21.6615 8.99768 21.7944 9.32633 21.7971H12.8842C13.2129 21.7946 13.5272 21.6618 13.7581 21.4278C13.989 21.1938 14.1176 20.8778 14.1158 20.5491V16.8051C14.0721 16.5043 13.9255 16.228 13.7009 16.0232C13.4764 15.8183 13.1877 15.6976 12.8842 15.6816Z" fill="#B4B9F8"/>
<path d="M13.4532 8.34505C13.496 8.34351 13.5387 8.35082 13.5785 8.36651C13.6184 8.3822 13.6546 8.40593 13.6849 8.43623C13.7152 8.46653 13.739 8.50274 13.7546 8.54262C13.7703 8.58249 13.7776 8.62517 13.7761 8.66799V13.4246C13.78 13.5146 13.7483 13.6025 13.6879 13.6692C13.6274 13.7359 13.5431 13.7761 13.4532 13.7811H8.69653C8.60307 13.7777 8.51435 13.7391 8.44822 13.6729C8.38209 13.6068 8.34345 13.5181 8.34005 13.4246V8.66525C8.34501 8.57534 8.38522 8.49101 8.45195 8.43056C8.51868 8.3701 8.60657 8.33839 8.69653 8.34231H13.4367M13.4538 8.0002H8.69653C8.6071 7.99802 8.51811 8.01351 8.43467 8.04577C8.35123 8.07803 8.27498 8.12644 8.21028 8.18821C8.14558 8.24999 8.0937 8.32393 8.05761 8.40579C8.02153 8.48765 8.00195 8.57582 8 8.66525V13.4219C8.00317 13.6056 8.07757 13.781 8.20751 13.9109C8.33745 14.0408 8.51279 14.1152 8.69653 14.1184H13.4532C13.6333 14.1138 13.8042 14.0378 13.9284 13.9072C14.0526 13.7766 14.1199 13.602 14.1155 13.4219V8.66525C14.1171 8.57784 14.101 8.49101 14.0683 8.40994C14.0355 8.32888 13.9868 8.25523 13.925 8.19341C13.8632 8.1316 13.7895 8.08287 13.7085 8.05014C13.6274 8.01742 13.5406 8.00136 13.4532 8.00294L13.4538 8.0002Z" fill="#455A64"/>
<path d="M13.4532 8.34505C13.496 8.34351 13.5387 8.35082 13.5785 8.36651C13.6184 8.3822 13.6546 8.40593 13.6849 8.43623C13.7152 8.46653 13.739 8.50274 13.7546 8.54262C13.7703 8.58249 13.7776 8.62517 13.7761 8.66799V13.4246C13.78 13.5146 13.7483 13.6025 13.6879 13.6692C13.6274 13.7359 13.5431 13.7761 13.4532 13.7811H8.69653C8.60307 13.7777 8.51435 13.7391 8.44822 13.6729C8.38209 13.6068 8.34345 13.5181 8.34005 13.4246V8.66525C8.34501 8.57534 8.38522 8.49101 8.45195 8.43056C8.51868 8.3701 8.60657 8.33839 8.69653 8.34231H13.4367M13.4538 8.0002H8.69653C8.6071 7.99802 8.51811 8.01351 8.43467 8.04577C8.35123 8.07803 8.27498 8.12644 8.21028 8.18821C8.14558 8.24999 8.0937 8.32393 8.05761 8.40579C8.02153 8.48765 8.00195 8.57582 8 8.66525V13.4219C8.00317 13.6056 8.07757 13.781 8.20751 13.9109C8.33745 14.0408 8.51279 14.1152 8.69653 14.1184H13.4532C13.6333 14.1138 13.8042 14.0378 13.9284 13.9072C14.0526 13.7766 14.1199 13.602 14.1155 13.4219V8.66525C14.1171 8.57784 14.101 8.49101 14.0683 8.40994C14.0355 8.32888 13.9868 8.25523 13.925 8.19341C13.8632 8.1316 13.7895 8.08287 13.7085 8.05014C13.6274 8.01742 13.5406 8.00136 13.4532 8.00294L13.4538 8.0002Z" stroke="#455A64" stroke-width="0.5"/>
<path d="M21.098 16.0239C21.1408 16.0224 21.1835 16.0297 21.2233 16.0454C21.2632 16.0611 21.2995 16.0848 21.3298 16.1151C21.36 16.1454 21.3838 16.1816 21.3995 16.2215C21.4152 16.2614 21.4224 16.3041 21.4209 16.3469V21.1035C21.4248 21.1935 21.3931 21.2814 21.3327 21.3481C21.2722 21.4148 21.1879 21.455 21.098 21.46H16.3413C16.2479 21.4566 16.1592 21.418 16.093 21.3518C16.0269 21.2857 15.9883 21.197 15.9849 21.1035V16.3469C15.9898 16.257 16.03 16.1726 16.0968 16.1122C16.1635 16.0517 16.2514 16.02 16.3413 16.0239H21.0816M21.0987 15.6818H16.342C16.1619 15.6774 15.9873 15.7447 15.8567 15.8689C15.7261 15.9931 15.6502 16.164 15.6455 16.3442V21.1008C15.6487 21.2845 15.7231 21.4599 15.853 21.5898C15.983 21.7197 16.1583 21.7941 16.342 21.7973H21.0987C21.2788 21.7927 21.4497 21.7167 21.5739 21.5861C21.6981 21.4555 21.7654 21.281 21.761 21.1008V16.3442C21.7625 16.2567 21.7465 16.1699 21.7138 16.0888C21.6811 16.0078 21.6323 15.9341 21.5705 15.8723C21.5087 15.8105 21.435 15.7618 21.354 15.7291C21.2729 15.6963 21.1861 15.6803 21.0987 15.6818Z" fill="#455A64"/>
<path d="M21.098 16.0239C21.1408 16.0224 21.1835 16.0297 21.2233 16.0454C21.2632 16.0611 21.2995 16.0848 21.3298 16.1151C21.36 16.1454 21.3838 16.1816 21.3995 16.2215C21.4152 16.2614 21.4224 16.3041 21.4209 16.3469V21.1035C21.4248 21.1935 21.3931 21.2814 21.3327 21.3481C21.2722 21.4148 21.1879 21.4551 21.098 21.46H16.3413C16.2479 21.4566 16.1592 21.418 16.093 21.3518C16.0269 21.2857 15.9883 21.197 15.9849 21.1035V16.3469C15.9898 16.257 16.03 16.1726 16.0968 16.1122C16.1635 16.0517 16.2514 16.02 16.3413 16.0239H21.0816M21.0987 15.6818H16.342C16.1619 15.6774 15.9873 15.7447 15.8567 15.8689C15.7261 15.9931 15.6502 16.164 15.6455 16.3442V21.1008C15.6487 21.2845 15.7231 21.4599 15.853 21.5898C15.983 21.7197 16.1583 21.7941 16.342 21.7973H21.0987C21.2788 21.7927 21.4497 21.7167 21.5739 21.5861C21.6981 21.4555 21.7654 21.281 21.761 21.1008V16.3442C21.7626 16.2567 21.7465 16.1699 21.7138 16.0888C21.6811 16.0078 21.6323 15.9341 21.5705 15.8723C21.5087 15.8105 21.435 15.7618 21.354 15.7291C21.2729 15.6963 21.1861 15.6803 21.0987 15.6818V15.6818Z" stroke="#455A64" stroke-width="0.5"/>
<path d="M20.5517 8.00293H17.0438C16.7181 8.00869 16.408 8.14325 16.1812 8.37714C15.9545 8.61104 15.8297 8.92522 15.8341 9.25093V12.8704C15.8297 13.1961 15.9545 13.5103 16.1812 13.7442C16.408 13.9781 16.7181 14.1126 17.0438 14.1184H20.5517C20.8774 14.1126 21.1876 13.9781 21.4143 13.7442C21.641 13.5103 21.7658 13.1961 21.7614 12.8704V9.1264C21.7211 8.82802 21.5784 8.5529 21.3578 8.348C21.1372 8.1431 20.8523 8.02113 20.5517 8.00293Z" fill="#B4B9F8"/>
<path d="M21.0817 10.7236V13.4399H16.325V8.68255H20.1566L20.7512 8.00313H16.3401C16.1599 7.99872 15.9854 8.066 15.8548 8.19018C15.7242 8.31436 15.6482 8.4853 15.6436 8.66545V13.4221C15.6467 13.6058 15.7211 13.7812 15.8511 13.9111C15.981 14.041 16.1563 14.1154 16.3401 14.1186H21.0967C21.2769 14.1139 21.4478 14.038 21.572 13.9074C21.6962 13.7768 21.7635 13.6022 21.759 13.4221V9.94629L21.0817 10.7236Z" fill="#455A64"/>
<path d="M13.4367 18.4358V21.1179H8.67942V16.3613H12.5425L13.1371 15.6818H8.69653C8.51637 15.6774 8.34182 15.7447 8.21123 15.8689C8.08063 15.9931 8.00466 16.164 8 16.3442V21.1008C8.00317 21.2845 8.07757 21.4599 8.20751 21.5898C8.33745 21.7197 8.51279 21.7941 8.69653 21.7973H13.4532C13.6333 21.7927 13.8042 21.7167 13.9284 21.5861C14.0526 21.4555 14.1199 21.281 14.1155 21.1008V17.6592L13.4367 18.4358Z" fill="#455A64"/>
<path d="M18.5071 12.457C18.4617 12.4568 18.4168 12.4476 18.3749 12.4299C18.3331 12.4121 18.2953 12.3862 18.2636 12.3537L17.1004 11.157C17.0496 11.0905 17.025 11.0077 17.0312 10.9242C17.0374 10.8408 17.0739 10.7625 17.1339 10.7042C17.1939 10.6459 17.2732 10.6116 17.3568 10.6077C17.4404 10.6039 17.5225 10.6309 17.5875 10.6835L18.4934 11.6161L21.3411 8.36201C21.3684 8.32207 21.4039 8.28837 21.4451 8.26313C21.4864 8.23789 21.5326 8.2217 21.5806 8.21561C21.6285 8.20952 21.6773 8.21368 21.7235 8.22782C21.7698 8.24195 21.8126 8.26573 21.849 8.2976C21.8854 8.32947 21.9146 8.36869 21.9347 8.41268C21.9548 8.45667 21.9654 8.50443 21.9657 8.55281C21.966 8.60118 21.956 8.64907 21.9365 8.69332C21.9169 8.73756 21.8882 8.77716 21.8522 8.80949L18.7623 12.3414C18.7313 12.3766 18.6934 12.405 18.6509 12.4249C18.6084 12.4448 18.5622 12.4557 18.5153 12.457H18.5071Z" fill="#455A64"/>
<path d="M10.8618 20.1704C10.8164 20.1703 10.7715 20.1612 10.7297 20.1436C10.6879 20.126 10.65 20.1002 10.6182 20.0678L9.45506 18.8711C9.41745 18.8407 9.38673 18.8026 9.36491 18.7594C9.3431 18.7163 9.33068 18.669 9.32848 18.6207C9.32628 18.5724 9.33435 18.5241 9.35216 18.4792C9.36997 18.4342 9.39711 18.3935 9.43179 18.3598C9.46648 18.3261 9.50791 18.3001 9.55337 18.2836C9.59883 18.2671 9.64727 18.2604 9.6955 18.264C9.74374 18.2675 9.79066 18.2813 9.83319 18.3043C9.87572 18.3274 9.91287 18.3592 9.94221 18.3976L10.8481 19.3302L13.6958 16.0754C13.758 16.0195 13.8386 15.9883 13.9222 15.9878C14.0059 15.9873 14.0868 16.0174 14.1498 16.0725C14.2127 16.1276 14.2533 16.2039 14.2638 16.2868C14.2743 16.3698 14.2541 16.4538 14.2069 16.5229L11.117 20.0548C11.086 20.0899 11.048 20.1184 11.0055 20.1383C10.963 20.1582 10.9169 20.1691 10.87 20.1704H10.8618Z" fill="#455A64"/>
</svg>
