<svg width="30" height="30" viewBox="0 0 30 30" fill="none" xmlns="http://www.w3.org/2000/svg">
<rect width="30" height="30" fill="#F3F4F8"/>
<path d="M16.3209 19.8067H8.41932C8.41932 19.8067 7.91816 17.1055 9.20503 15.7579C9.74373 15.165 10.4318 14.7276 11.1973 14.4916C11.9628 14.2555 12.7777 14.2294 13.5568 14.4159C14.8932 14.7289 15.7518 16.0475 15.954 16.3454C16.3032 16.8441 16.52 17.4233 16.5842 18.0287C16.6484 18.6341 16.5578 19.2459 16.3209 19.8067Z" fill="#FBB5AF"/>
<path d="M12.406 14.0547C12.3413 14.0547 12.2793 14.0804 12.2336 14.1261C12.1878 14.1719 12.1621 14.2339 12.1621 14.2986V14.9774C12.1651 15.04 12.1921 15.099 12.2374 15.1423C12.2828 15.1855 12.3431 15.2096 12.4057 15.2096C12.4684 15.2096 12.5287 15.1855 12.574 15.1423C12.6194 15.099 12.6464 15.04 12.6493 14.9774V14.3008C12.6496 14.2686 12.6436 14.2367 12.6315 14.2069C12.6194 14.1771 12.6015 14.15 12.5789 14.1271C12.5563 14.1042 12.5294 14.0861 12.4997 14.0736C12.47 14.0612 12.4382 14.0548 12.406 14.0547Z" fill="#455A64"/>
<path d="M8.96377 18.1782H8.28498C8.22238 18.1812 8.16334 18.2082 8.1201 18.2536C8.07686 18.2989 8.05273 18.3592 8.05273 18.4218C8.05273 18.4845 8.07686 18.5448 8.1201 18.5901C8.16334 18.6355 8.22238 18.6625 8.28498 18.6655H8.96377C9.02637 18.6625 9.08541 18.6355 9.12866 18.5901C9.1719 18.5448 9.19602 18.4845 9.19602 18.4218C9.19602 18.3592 9.1719 18.2989 9.12866 18.2536C9.08541 18.2082 9.02637 18.1812 8.96377 18.1782Z" fill="#455A64"/>
<path d="M16.5261 18.1782H15.8485C15.7859 18.1812 15.7268 18.2082 15.6836 18.2536C15.6403 18.2989 15.6162 18.3592 15.6162 18.4218C15.6162 18.4845 15.6403 18.5448 15.6836 18.5901C15.7268 18.6355 15.7859 18.6625 15.8485 18.6655H16.5273C16.5898 18.6625 16.6489 18.6355 16.6921 18.5901C16.7354 18.5448 16.7595 18.4845 16.7595 18.4218C16.7595 18.3592 16.7354 18.2989 16.6921 18.2536C16.6489 18.2082 16.5898 18.1812 16.5273 18.1782H16.5261Z" fill="#455A64"/>
<path d="M9.66376 15.3352C9.6175 15.2922 9.55639 15.2689 9.49329 15.2701C9.43018 15.2712 9.36998 15.2968 9.32534 15.3415C9.28071 15.3861 9.25512 15.4463 9.25395 15.5094C9.25278 15.5725 9.27612 15.6336 9.31907 15.6799L9.79907 16.1599C9.84533 16.2028 9.90643 16.2262 9.96954 16.225C10.0327 16.2238 10.0929 16.1982 10.1375 16.1536C10.1821 16.109 10.2077 16.0488 10.2089 15.9857C10.21 15.9225 10.1867 15.8614 10.1438 15.8152L9.66376 15.3352Z" fill="#455A64"/>
<path d="M15.1478 15.3352L14.6678 15.8152C14.6438 15.8375 14.6245 15.8644 14.6111 15.8944C14.5977 15.9243 14.5905 15.9566 14.5899 15.9894C14.5893 16.0222 14.5953 16.0548 14.6076 16.0852C14.6198 16.1156 14.6381 16.1432 14.6613 16.1664C14.6845 16.1896 14.7121 16.2078 14.7425 16.2201C14.7729 16.2324 14.8055 16.2384 14.8383 16.2378C14.871 16.2372 14.9034 16.23 14.9333 16.2166C14.9632 16.2032 14.9902 16.1839 15.0125 16.1599L15.4925 15.6799C15.5354 15.6336 15.5588 15.5725 15.5576 15.5094C15.5564 15.4463 15.5308 15.3861 15.4862 15.3415C15.4416 15.2968 15.3814 15.2712 15.3183 15.2701C15.2552 15.2689 15.194 15.2922 15.1478 15.3352Z" fill="#455A64"/>
<path d="M8.46722 19.9974C8.41614 19.9972 8.36642 19.981 8.32505 19.951C8.28369 19.9211 8.25278 19.8789 8.23669 19.8304C8.01149 19.1714 7.94573 18.4683 8.04481 17.779C8.14389 17.0896 8.40499 16.4336 8.80668 15.8646C9.20837 15.2957 9.73921 14.8301 10.3557 14.506C10.9721 14.182 11.6566 14.0087 12.353 14.0003C13.0494 13.992 13.7378 14.1488 14.3619 14.4581C14.9859 14.7673 15.5278 15.22 15.9429 15.7792C16.3581 16.3383 16.6349 16.9879 16.7504 17.6747C16.866 18.3615 16.8171 19.0659 16.6077 19.7301C16.5871 19.7904 16.5437 19.8401 16.4868 19.8688C16.43 19.8974 16.3642 19.9027 16.3035 19.8835C16.2428 19.8643 16.192 19.8222 16.162 19.7661C16.132 19.7099 16.1251 19.6443 16.1428 19.5831C16.329 18.9924 16.3726 18.3658 16.2699 17.7549C16.1671 17.1441 15.9211 16.5662 15.5518 16.0689C15.1825 15.5715 14.7006 15.1688 14.1455 14.8937C13.5905 14.6187 12.9782 14.4791 12.3587 14.4865C11.7393 14.494 11.1305 14.6481 10.5822 14.9364C10.0339 15.2246 9.56173 15.6388 9.20447 16.1448C8.84721 16.6509 8.61501 17.2344 8.52693 17.8476C8.43885 18.4608 8.49739 19.0861 8.69776 19.6722C8.71034 19.7089 8.71398 19.7481 8.70838 19.7865C8.70277 19.8249 8.68809 19.8614 8.66555 19.893C8.643 19.9246 8.61325 19.9503 8.57876 19.9681C8.54426 19.9859 8.50603 19.9952 8.46722 19.9952V19.9974Z" fill="#455A64"/>
<path d="M14.1086 16.7837C14.0629 16.738 14.0009 16.7124 13.9363 16.7124C13.8717 16.7124 13.8097 16.738 13.764 16.7837L12.6931 17.8417C12.559 17.7863 12.4098 17.7789 12.2709 17.8209C12.1319 17.863 12.0118 17.9518 11.9309 18.0723C11.85 18.1928 11.8133 18.3376 11.827 18.4821C11.8408 18.6266 11.9041 18.7619 12.0062 18.8651C12.1083 18.9682 12.243 19.0328 12.3874 19.0479C12.5318 19.0631 12.6769 19.0278 12.7982 18.948C12.9195 18.8683 13.0095 18.7491 13.0529 18.6105C13.0962 18.472 13.0903 18.3227 13.0362 18.1881L14.107 17.1301C14.1299 17.1075 14.1482 17.0806 14.1607 17.051C14.1733 17.0213 14.1798 16.9894 14.18 16.9572C14.1801 16.925 14.1739 16.8931 14.1617 16.8633C14.1494 16.8336 14.1314 16.8065 14.1086 16.7837Z" fill="#455A64"/>
<path d="M23.5911 14.5552H17.4658V15.6689H23.5911V14.5552Z" fill="#455A64"/>
<path d="M23.5911 17.8965H17.4658V19.0102H23.5911V17.8965Z" fill="#455A64"/>
<path d="M23.5911 16.2261H17.4658V17.3398H23.5911V16.2261Z" fill="#455A64"/>
</svg>
