<svg width="30" height="30" viewBox="0 0 30 30" fill="none" xmlns="http://www.w3.org/2000/svg">
<rect width="30" height="30" fill="#F3F4F8"/>
<path d="M24.6743 9.49561H8.32129V13.2119H24.6743V9.49561Z" fill="#C1EFE2"/>
<path d="M20.2132 15.4424H12.0371V16.9292H20.2132V15.4424Z" fill="#C1EFE2"/>
<path d="M20.2132 18.415H12.0371V20.6453H20.2132V18.415Z" fill="#C1EFE2"/>
<path d="M9.80814 15.4424H8.32129V16.9292H9.80814V15.4424Z" fill="#C1EFE2"/>
<path d="M9.80814 18.415H8.32129V20.6453H9.80814V18.415Z" fill="#C1EFE2"/>
<path d="M10.1432 14.8423H8.42881C8.31515 14.8425 8.2062 14.8877 8.12583 14.9681C8.04546 15.0485 8.00021 15.1574 8 15.2711V16.9855C8.00021 17.0992 8.04546 17.2081 8.12583 17.2885C8.2062 17.3689 8.31515 17.4141 8.42881 17.4143H10.1432C10.2569 17.4141 10.3658 17.3689 10.4462 17.2885C10.5266 17.2081 10.5718 17.0992 10.572 16.9855V15.2711C10.5718 15.1574 10.5266 15.0485 10.4462 14.9681C10.3658 14.8877 10.2569 14.8425 10.1432 14.8423ZM9.71443 16.5567H8.85682V15.6991H9.71363L9.71443 16.5567Z" fill="#455A64"/>
<path d="M10.1432 18.2715H8.42881C8.31515 18.2717 8.2062 18.3169 8.12583 18.3973C8.04546 18.4777 8.00021 18.5866 8 18.7003V20.4147C8.00021 20.5284 8.04546 20.6373 8.12583 20.7177C8.2062 20.7981 8.31515 20.8433 8.42881 20.8435H10.1432C10.2569 20.8433 10.3658 20.7981 10.4462 20.7177C10.5266 20.6373 10.5718 20.5284 10.572 20.4147V18.7003C10.5718 18.5866 10.5266 18.4777 10.4462 18.3973C10.3658 18.3169 10.2569 18.2717 10.1432 18.2715ZM9.71443 19.9859H8.85682V19.1283H9.71363L9.71443 19.9859Z" fill="#455A64"/>
<path d="M10.1432 21.7002H8.42881C8.31515 21.7004 8.2062 21.7457 8.12583 21.826C8.04546 21.9064 8.00021 22.0153 8 22.129V23.8434C8.00021 23.9571 8.04546 24.066 8.12583 24.1464C8.2062 24.2268 8.31515 24.272 8.42881 24.2722H10.1432C10.2569 24.272 10.3658 24.2268 10.4462 24.1464C10.5266 24.066 10.5718 23.9571 10.572 23.8434V22.129C10.5718 22.0153 10.5266 21.9064 10.4462 21.826C10.3658 21.7457 10.2569 21.7004 10.1432 21.7002ZM9.71443 23.4146H8.85682V22.557H9.71363L9.71443 23.4146Z" fill="#455A64"/>
<path d="M24.2899 8.84229H8.85682C8.63092 8.84658 8.41547 8.93823 8.25571 9.09799C8.09595 9.25776 8.0043 9.4732 8 9.6991V13.128C8.00084 13.355 8.09138 13.5724 8.25189 13.7329C8.41239 13.8934 8.62983 13.9839 8.85682 13.9848H24.2899C24.5158 13.9805 24.7313 13.8888 24.891 13.7291C25.0508 13.5693 25.1424 13.3539 25.1467 13.128V9.6991C25.1459 9.47212 25.0553 9.25467 24.8948 9.09417C24.7343 8.93367 24.5169 8.84313 24.2899 8.84229ZM20.0002 13.128H8.85682V9.6991H20.0002V13.128ZM24.2859 13.128H20.8562V9.6991H24.2899L24.2859 13.128Z" fill="#455A64"/>
<path d="M22.5932 10.9854L21.7148 11.9068H23.4508L22.5932 10.9854Z" fill="#455A64"/>
<path d="M20.4289 14.8423H11.8575C11.7439 14.8425 11.6349 14.8877 11.5545 14.9681C11.4742 15.0485 11.4289 15.1574 11.4287 15.2711V16.9855C11.4289 17.0992 11.4742 17.2081 11.5545 17.2885C11.6349 17.3689 11.7439 17.4141 11.8575 17.4143H20.4289C20.5425 17.4141 20.6515 17.3689 20.7319 17.2885C20.8122 17.2081 20.8575 17.0992 20.8577 16.9855V15.2711C20.8575 15.1574 20.8122 15.0485 20.7319 14.9681C20.6515 14.8877 20.5425 14.8425 20.4289 14.8423ZM20.0001 16.5567H12.2855V15.6991H20.0001V16.5567Z" fill="#455A64"/>
<path d="M20.4289 18.2715H11.8575C11.7439 18.2717 11.6349 18.3169 11.5545 18.3973C11.4742 18.4777 11.4289 18.5866 11.4287 18.7003V20.4147C11.4289 20.5284 11.4742 20.6373 11.5545 20.7177C11.6349 20.7981 11.7439 20.8433 11.8575 20.8435H20.4289C20.5425 20.8433 20.6515 20.7981 20.7319 20.7177C20.8122 20.6373 20.8575 20.5284 20.8577 20.4147V18.7003C20.8575 18.5866 20.8122 18.4777 20.7319 18.3973C20.6515 18.3169 20.5425 18.2717 20.4289 18.2715ZM20.0001 19.9859H12.2855V19.1283H20.0001V19.9859Z" fill="#455A64"/>
<path d="M20.4289 21.7002H11.8575C11.7439 21.7004 11.6349 21.7457 11.5545 21.826C11.4742 21.9064 11.4289 22.0153 11.4287 22.129V23.8434C11.4289 23.9571 11.4742 24.066 11.5545 24.1464C11.6349 24.2268 11.7439 24.272 11.8575 24.2722H20.4289C20.5425 24.272 20.6515 24.2268 20.7319 24.1464C20.8122 24.066 20.8575 23.9571 20.8577 23.8434V22.129C20.8575 22.0153 20.8122 21.9064 20.7319 21.826C20.6515 21.7457 20.5425 21.7004 20.4289 21.7002ZM20.0001 23.4146H12.2855V22.557H20.0001V23.4146Z" fill="#455A64"/>
</svg>
