<svg width="30" height="30" viewBox="0 0 30 30" fill="none" xmlns="http://www.w3.org/2000/svg">
<rect width="30" height="30" fill="#F3F4F8"/>
<path d="M21.4087 7H10.6179C10.457 7.00444 10.3043 7.07255 10.1934 7.18938C10.0826 7.3062 10.0226 7.46222 10.0266 7.62322V13.1544C10.0229 13.3153 10.0831 13.4711 10.1939 13.5879C10.3046 13.7046 10.4571 13.7728 10.6179 13.7776H21.4087C21.5697 13.7732 21.7223 13.7051 21.8332 13.5883C21.9441 13.4714 22.0041 13.3154 22.0001 13.1544V7.55885C21.9813 7.41169 21.9121 7.27559 21.8043 7.17369C21.6965 7.0718 21.5567 7.01042 21.4087 7V7Z" fill="#B4B9F8" stroke="#455A64"/>
<path d="M21.3823 16.5498H10.5916C10.4306 16.5542 10.2779 16.6224 10.1671 16.7392C10.0562 16.856 9.99619 17.012 10.0002 17.173V22.7042C9.99657 22.8651 10.0567 23.0209 10.1675 23.1377C10.2783 23.2544 10.4307 23.3226 10.5916 23.3274H21.3823C21.5433 23.323 21.696 23.2549 21.8068 23.1381C21.9177 23.0212 21.9777 22.8652 21.9737 22.7042V17.1087C21.9549 16.9615 21.8858 16.8254 21.7779 16.7235C21.6701 16.6216 21.5303 16.5602 21.3823 16.5498V16.5498Z" fill="#FBB5AF" stroke="#455A64"/>
<path d="M13.6136 10.9211H12.6303L12.4245 11.5118H11.9668L12.9253 8.97437H13.3208L14.2807 11.5118H13.8209L13.6136 10.9211ZM12.7548 10.5674H13.4905L13.1227 9.51483L12.7548 10.5674ZM15.2003 11.5118V8.97437H16.0697C16.3011 8.95879 16.5312 9.01941 16.7248 9.14697C16.8017 9.20835 16.8625 9.28747 16.9021 9.37755C16.9416 9.46762 16.9587 9.56595 16.9519 9.66409C16.9531 9.77569 16.9203 9.88502 16.8578 9.97747C16.7893 10.0749 16.6936 10.1499 16.5826 10.1932C16.7103 10.2244 16.823 10.2995 16.9009 10.4054C16.9774 10.5134 17.0169 10.6432 17.0134 10.7754C17.0196 10.8783 17.0022 10.9813 16.9625 11.0765C16.9228 11.1716 16.8618 11.2564 16.7842 11.3244C16.595 11.4635 16.3628 11.5314 16.1285 11.5161L15.2003 11.5118ZM15.6411 10.3672V11.1602H16.1313C16.2488 11.1674 16.3648 11.1306 16.4567 11.057C16.4957 11.0212 16.5264 10.9774 16.5466 10.9285C16.5667 10.8796 16.5759 10.8268 16.5734 10.774C16.5803 10.7192 16.5746 10.6636 16.5567 10.6113C16.5388 10.5591 16.5092 10.5117 16.4702 10.4726C16.4311 10.4336 16.3837 10.404 16.3314 10.3861C16.2792 10.3682 16.2236 10.3625 16.1688 10.3694L15.6411 10.3672ZM15.6411 10.0433H16.0733C16.1885 10.0493 16.3022 10.0153 16.3951 9.94705C16.4338 9.91522 16.4644 9.87476 16.4846 9.82893C16.5047 9.7831 16.5138 9.73318 16.5112 9.68319C16.5158 9.63265 16.5084 9.58174 16.4898 9.53456C16.4711 9.48737 16.4416 9.44524 16.4036 9.41154C16.3044 9.34813 16.1872 9.31882 16.0697 9.32807H15.6411V10.0433ZM20.0199 10.6863C20.0083 10.9299 19.9004 11.1589 19.72 11.323C19.5241 11.4818 19.2764 11.5627 19.0246 11.55C18.8367 11.5545 18.6515 11.5054 18.4905 11.4085C18.3352 11.3097 18.2123 11.1675 18.1368 10.9997C18.0494 10.8063 18.0048 10.5964 18.0059 10.3842V10.1472C18.0015 9.92966 18.045 9.71376 18.1332 9.51483C18.21 9.34017 18.3371 9.19239 18.4983 9.09038C18.6637 8.98987 18.8544 8.93859 19.0479 8.94253C19.2931 8.93076 19.5337 9.01155 19.7221 9.1689C19.9006 9.33738 20.0073 9.56821 20.0199 9.81335H19.5806C19.5752 9.66723 19.5189 9.5276 19.4214 9.41862C19.3166 9.33117 19.1819 9.2878 19.0458 9.29765C18.9604 9.2936 18.8753 9.31088 18.7982 9.34793C18.7212 9.38498 18.6545 9.44063 18.6044 9.50987C18.4893 9.69398 18.4342 9.90926 18.4466 10.126V10.351C18.4327 10.5701 18.4839 10.7884 18.5938 10.9784C18.6409 11.0487 18.7054 11.1055 18.781 11.1433C18.8567 11.1811 18.9408 11.1986 19.0253 11.1942C19.1654 11.2047 19.3044 11.1632 19.4158 11.0775C19.5155 10.9719 19.5742 10.8342 19.5813 10.6891L20.0199 10.6863Z" fill="#455A64"/>
<path d="M12.4766 21.3364V18.3186H13.3679C13.6153 18.3143 13.8594 18.3758 14.0753 18.4968C14.2811 18.615 14.4479 18.7908 14.5549 19.0026C14.6715 19.2353 14.7298 19.4929 14.7247 19.7532V19.9046C14.7311 20.1659 14.6733 20.4248 14.5563 20.6587C14.4473 20.8703 14.2779 21.0449 14.0696 21.1602C13.8472 21.2806 13.5974 21.3413 13.3445 21.3364H12.4766ZM13.0007 18.7416V20.9176H13.3424C13.4612 20.9254 13.5801 20.9063 13.6904 20.8616C13.8007 20.8169 13.8994 20.7477 13.9791 20.6594C14.1375 20.4472 14.2159 20.1859 14.2005 19.9215V19.7539C14.2191 19.4866 14.1441 19.2213 13.9883 19.0033C13.9119 18.9154 13.8162 18.8463 13.7087 18.8014C13.6012 18.7565 13.4848 18.737 13.3686 18.7444L13.0007 18.7416ZM17.1921 19.9923H15.9506V20.9176H17.3994V21.3364H15.4236V18.3186H17.3845V18.743H15.9506V19.5749H17.1921V19.9923ZM19.7437 20.063H18.527V21.3364H18.0028V18.3186H19.9199V18.743H18.527V19.6386H19.7388L19.7437 20.063Z" fill="#455A64"/>
</svg>
