<svg width="30" height="30" viewBox="0 0 30 30" fill="none" xmlns="http://www.w3.org/2000/svg">
<rect width="30" height="30" fill="#F3F4F8"/>
<path d="M22.2204 20.2256H9.66594C9.66594 20.2256 8.87093 15.9339 10.9141 13.7927C11.7697 12.8499 12.8629 12.1543 14.0795 11.7787C15.296 11.403 16.5911 11.3612 17.8293 11.6575C19.9493 12.1544 21.316 14.2499 21.638 14.7222C22.1935 15.515 22.5383 16.436 22.6402 17.3987C22.742 18.3614 22.5976 19.3341 22.2204 20.2256Z" fill="#CBE0F5"/>
<path d="M15.9999 11.0879C15.8971 11.0879 15.7985 11.1287 15.7258 11.2014C15.6531 11.2741 15.6123 11.3727 15.6123 11.4755V12.554C15.6164 12.6539 15.659 12.7484 15.7312 12.8176C15.8034 12.8869 15.8995 12.9256 15.9995 12.9256C16.0996 12.9256 16.1957 12.8869 16.2679 12.8176C16.34 12.7484 16.3826 12.6539 16.3868 12.554V11.4781C16.3871 11.427 16.3774 11.3764 16.3581 11.3291C16.3388 11.2818 16.3104 11.2388 16.2744 11.2026C16.2385 11.1663 16.1957 11.1375 16.1486 11.1178C16.1015 11.0982 16.0509 11.088 15.9999 11.0879Z" fill="#455A64"/>
<path d="M10.5312 17.6382H9.4526C9.35267 17.6423 9.25821 17.6849 9.18896 17.7571C9.11972 17.8293 9.08105 17.9254 9.08105 18.0254C9.08105 18.1254 9.11972 18.2216 9.18896 18.2938C9.25821 18.3659 9.35267 18.4085 9.4526 18.4127H10.5312C10.6311 18.4085 10.7255 18.3659 10.7948 18.2938C10.864 18.2216 10.9027 18.1254 10.9027 18.0254C10.9027 17.9254 10.864 17.8293 10.7948 17.7571C10.7255 17.6849 10.6311 17.6423 10.5312 17.6382Z" fill="#455A64"/>
<path d="M22.5468 17.6382H21.4682C21.3683 17.6423 21.2738 17.6849 21.2046 17.7571C21.1354 17.8293 21.0967 17.9254 21.0967 18.0254C21.0967 18.1254 21.1354 18.2216 21.2046 18.2938C21.2738 18.3659 21.3683 18.4085 21.4682 18.4127H22.5468C22.6467 18.4085 22.7412 18.3659 22.8104 18.2938C22.8797 18.2216 22.9183 18.1254 22.9183 18.0254C22.9183 17.9254 22.8797 17.8293 22.8104 17.7571C22.7412 17.6849 22.6467 17.6423 22.5468 17.6382Z" fill="#455A64"/>
<path d="M11.6447 13.1217C11.6091 13.084 11.5663 13.0539 11.5188 13.0331C11.4714 13.0123 11.4203 13.0012 11.3685 13.0005C11.3167 12.9998 11.2653 13.0095 11.2173 13.029C11.1693 13.0485 11.1257 13.0774 11.0891 13.114C11.0525 13.1506 11.0236 13.1942 11.0041 13.2422C10.9846 13.2902 10.9749 13.3416 10.9756 13.3934C10.9763 13.4452 10.9874 13.4963 11.0082 13.5438C11.029 13.5912 11.0591 13.634 11.0968 13.6696L11.8593 14.4321C11.9326 14.5015 12.0301 14.5395 12.131 14.5381C12.232 14.5367 12.3284 14.496 12.3997 14.4246C12.4711 14.3533 12.5118 14.2569 12.5132 14.1559C12.5146 14.055 12.4766 13.9575 12.4072 13.8842L11.6447 13.1217Z" fill="#455A64"/>
<path d="M20.3554 13.1217L19.5929 13.8842C19.5552 13.9198 19.5251 13.9626 19.5043 14.01C19.4835 14.0575 19.4724 14.1086 19.4717 14.1604C19.471 14.2122 19.4807 14.2636 19.5002 14.3116C19.5197 14.3596 19.5486 14.4031 19.5852 14.4398C19.6218 14.4764 19.6654 14.5053 19.7134 14.5248C19.7614 14.5443 19.8128 14.554 19.8646 14.5533C19.9164 14.5525 19.9675 14.5415 20.015 14.5206C20.0624 14.4998 20.1051 14.4697 20.1407 14.4321L20.9033 13.6696C20.9727 13.5963 21.0107 13.4988 21.0093 13.3978C21.0079 13.2969 20.9672 13.2005 20.8958 13.1291C20.8245 13.0578 20.7281 13.0171 20.6271 13.0157C20.5262 13.0143 20.4287 13.0523 20.3554 13.1217Z" fill="#455A64"/>
<path d="M9.74261 20.5291C9.6615 20.5288 9.58251 20.5031 9.51678 20.4555C9.45105 20.408 9.4019 20.341 9.37625 20.264C9.01834 19.2169 8.91378 18.0999 9.07114 17.0045C9.22851 15.9092 9.64332 14.8668 10.2815 13.9628C10.9198 13.0588 11.7632 12.319 12.7427 11.804C13.7222 11.2891 14.8098 11.0137 15.9163 11.0005C17.0228 10.9873 18.1167 11.2366 19.1082 11.7279C20.0998 12.2193 20.9607 12.9387 21.6203 13.8272C22.28 14.7157 22.7196 15.7479 22.9031 16.8392C23.0866 17.9305 23.0088 19.0497 22.676 20.105C22.6423 20.1996 22.5733 20.2774 22.4835 20.3222C22.3936 20.3669 22.2899 20.375 22.1942 20.3447C22.0984 20.3145 22.0182 20.2483 21.9703 20.1601C21.9224 20.0719 21.9105 19.9686 21.9373 19.8719C22.2344 18.9328 22.3046 17.9366 22.1419 16.9651C21.9793 15.9936 21.5886 15.0746 21.0018 14.2835C20.4151 13.4923 19.649 12.8516 18.7666 12.414C17.8842 11.9765 16.9105 11.7544 15.9256 11.7662C14.9407 11.7779 13.9726 12.0231 13.1009 12.4816C12.2291 12.9402 11.4786 13.5989 10.9108 14.4039C10.3431 15.2088 9.97443 16.1369 9.83504 17.1119C9.69564 18.087 9.78953 19.0812 10.109 20.013C10.1289 20.0713 10.1346 20.1335 10.1257 20.1944C10.1167 20.2554 10.0934 20.3133 10.0575 20.3635C10.0217 20.4136 9.97447 20.4545 9.9197 20.4827C9.86493 20.5109 9.80423 20.5257 9.74261 20.5257V20.5291Z" fill="#455A64"/>
<path d="M18.7057 15.423C18.633 15.3504 18.5345 15.3096 18.4318 15.3096C18.329 15.3096 18.2305 15.3504 18.1578 15.423L16.4565 17.1064C16.2436 17.0182 16.0066 17.0064 15.786 17.0731C15.5653 17.1397 15.3745 17.2806 15.2459 17.472C15.1173 17.6633 15.0589 17.8932 15.0806 18.1227C15.1023 18.3522 15.2027 18.5671 15.3648 18.731C15.5269 18.8948 15.7407 18.9976 15.9699 19.0217C16.1991 19.0459 16.4297 18.99 16.6224 18.8635C16.8151 18.737 16.9581 18.5477 17.0271 18.3278C17.0962 18.1079 17.087 17.8709 17.0011 17.6569L18.7024 15.9735C18.739 15.9377 18.7681 15.895 18.7881 15.8479C18.8081 15.8007 18.8185 15.7501 18.8188 15.6989C18.8191 15.6478 18.8093 15.597 18.7899 15.5496C18.7705 15.5023 18.7419 15.4592 18.7057 15.423Z" fill="#455A64"/>
</svg>
