<svg width="30" height="30" viewBox="0 0 30 30" fill="none" xmlns="http://www.w3.org/2000/svg">
<rect width="30" height="30" fill="#F3F4F8"/>
<path d="M19.2272 20.8102H9.31583C9.31583 20.8102 8.6872 17.4219 10.3014 15.7316C10.9771 14.9879 11.8402 14.4393 12.8004 14.1432C13.7606 13.8471 14.7827 13.8143 15.7599 14.0483C17.4363 14.4408 18.5133 16.0948 18.7669 16.4685C19.2049 17.094 19.4769 17.8205 19.5574 18.5799C19.6379 19.3393 19.5243 20.1067 19.2272 20.8102Z" fill="#FBB5AF"/>
<path d="M14.3157 13.5952C14.2346 13.5952 14.1567 13.6274 14.0994 13.6848C14.042 13.7422 14.0098 13.82 14.0098 13.9011V14.7526C14.0135 14.8311 14.0474 14.9052 14.1043 14.9594C14.1612 15.0136 14.2367 15.0439 14.3153 15.0439C14.394 15.0439 14.4696 15.0136 14.5264 14.9594C14.5833 14.9052 14.6172 14.8311 14.6209 14.7526V13.9039C14.6213 13.8636 14.6137 13.8236 14.5985 13.7862C14.5834 13.7488 14.5609 13.7147 14.5326 13.6861C14.5042 13.6574 14.4704 13.6346 14.4332 13.619C14.396 13.6034 14.3561 13.5953 14.3157 13.5952Z" fill="#455A64"/>
<path d="M9.99822 18.7676H9.14679C9.06827 18.7713 8.99421 18.8052 8.93997 18.8621C8.88573 18.919 8.85547 18.9946 8.85547 19.0732C8.85547 19.1518 8.88573 19.2274 8.93997 19.2842C8.99421 19.3411 9.06827 19.375 9.14679 19.3787H9.99822C10.0767 19.375 10.1508 19.3411 10.205 19.2842C10.2593 19.2274 10.2895 19.1518 10.2895 19.0732C10.2895 18.9946 10.2593 18.919 10.205 18.8621C10.1508 18.8052 10.0767 18.7713 9.99822 18.7676Z" fill="#455A64"/>
<path d="M19.4851 18.7676H18.6351C18.5566 18.7713 18.4825 18.8052 18.4282 18.8621C18.374 18.919 18.3438 18.9946 18.3438 19.0732C18.3438 19.1518 18.374 19.2274 18.4282 19.2842C18.4825 19.3411 18.5566 19.375 18.6351 19.3787H19.4865C19.565 19.375 19.6391 19.3411 19.6933 19.2842C19.7476 19.2274 19.7778 19.1518 19.7778 19.0732C19.7778 18.9946 19.7476 18.919 19.6933 18.8621C19.6391 18.8052 19.565 18.7713 19.4865 18.7676H19.4851Z" fill="#455A64"/>
<path d="M10.8764 15.2019C10.8184 15.148 10.7417 15.1187 10.6626 15.1202C10.5834 15.1216 10.5079 15.1537 10.4519 15.2097C10.3959 15.2657 10.3638 15.3412 10.3624 15.4204C10.3609 15.4995 10.3902 15.5762 10.444 15.6342L11.0461 16.2363C11.1041 16.2902 11.1808 16.3194 11.26 16.318C11.3391 16.3165 11.4146 16.2844 11.4706 16.2284C11.5266 16.1724 11.5587 16.0969 11.5602 16.0178C11.5616 15.9386 11.5324 15.862 11.4785 15.8039L10.8764 15.2019Z" fill="#455A64"/>
<path d="M17.7545 15.2019L17.1525 15.8039C17.1223 15.8319 17.0981 15.8657 17.0813 15.9032C17.0646 15.9408 17.0555 15.9813 17.0547 16.0225C17.054 16.0636 17.0615 16.1044 17.0769 16.1426C17.0923 16.1807 17.1152 16.2154 17.1443 16.2445C17.1734 16.2735 17.208 16.2965 17.2462 16.3119C17.2843 16.3272 17.3252 16.3348 17.3663 16.334C17.4074 16.3333 17.448 16.3242 17.4855 16.3074C17.5231 16.2906 17.5568 16.2664 17.5848 16.2363L18.1869 15.6342C18.2408 15.5762 18.2701 15.4995 18.2686 15.4204C18.2671 15.3412 18.235 15.2657 18.179 15.2097C18.1231 15.1537 18.0475 15.1216 17.9684 15.1202C17.8892 15.1187 17.8126 15.148 17.7545 15.2019Z" fill="#455A64"/>
<path d="M9.37512 21.0492C9.31105 21.049 9.24867 21.0286 9.19679 20.991C9.14491 20.9534 9.10614 20.9005 9.08595 20.8397C8.80348 20.013 8.72099 19.1312 8.84527 18.2665C8.96955 17.4018 9.29705 16.5789 9.80091 15.8652C10.3048 15.1516 10.9706 14.5676 11.7439 14.1611C12.5171 13.7546 13.3757 13.5372 14.2492 13.5268C15.1227 13.5163 15.9863 13.7131 16.769 14.1009C17.5518 14.4888 18.2314 15.0567 18.7522 15.7581C19.273 16.4594 19.6201 17.2743 19.7651 18.1357C19.91 18.9972 19.8487 19.8808 19.5861 20.7139C19.5602 20.7895 19.5058 20.8519 19.4345 20.8878C19.3632 20.9237 19.2806 20.9304 19.2045 20.9063C19.1284 20.8823 19.0647 20.8294 19.027 20.759C18.9893 20.6886 18.9807 20.6062 19.0029 20.5295C19.2365 19.7885 19.2912 19.0026 19.1623 18.2363C19.0335 17.4701 18.7248 16.7453 18.2616 16.1214C17.7984 15.4976 17.1939 14.9924 16.4977 14.6474C15.8015 14.3024 15.0334 14.1274 14.2564 14.1367C13.4794 14.146 12.7158 14.3393 12.028 14.7009C11.3402 15.0625 10.748 15.582 10.2999 16.2167C9.85175 16.8515 9.56049 17.5835 9.45001 18.3526C9.33953 19.1217 9.41296 19.906 9.66429 20.6413C9.68007 20.6873 9.68463 20.7365 9.67761 20.7846C9.67058 20.8328 9.65216 20.8786 9.62389 20.9182C9.59561 20.9578 9.55829 20.9901 9.51502 21.0124C9.47175 21.0347 9.42379 21.0464 9.37512 21.0464V21.0492Z" fill="#455A64"/>
<path d="M16.4504 17.0182C16.393 16.9609 16.3153 16.9287 16.2342 16.9287C16.1532 16.9287 16.0754 16.9609 16.0181 17.0182L14.6749 18.3453C14.5066 18.2757 14.3195 18.2665 14.1452 18.3192C13.9709 18.3719 13.8203 18.4833 13.7188 18.6345C13.6173 18.7857 13.5713 18.9673 13.5885 19.1485C13.6057 19.3298 13.6851 19.4995 13.8132 19.6289C13.9414 19.7583 14.1103 19.8393 14.2914 19.8583C14.4725 19.8772 14.6545 19.833 14.8067 19.733C14.9588 19.633 15.0717 19.4834 15.1261 19.3096C15.1805 19.1359 15.1731 18.9486 15.1051 18.7797L16.4483 17.4526C16.4771 17.4243 16.5001 17.3906 16.5158 17.3534C16.5315 17.3162 16.5397 17.2762 16.5399 17.2358C16.5401 17.1954 16.5323 17.1554 16.5169 17.118C16.5016 17.0807 16.4789 17.0467 16.4504 17.0182Z" fill="#455A64"/>
<path d="M21.0196 7.54346L20.3561 9.79018L17.9424 10.0688L19.6205 11.5934L18.9663 13.9093L20.8955 12.5706L22.8739 13.9093L22.3496 11.3777L24.3082 10.0702L21.7289 9.87175L21.0196 7.54346Z" fill="#C1EFE2"/>
<path d="M21.9615 9.80642L21.0264 7.2085L20.0913 9.80642L17.4736 9.93742L19.5174 11.6609L18.8239 14.3339L21.0264 12.8141L23.229 14.3339L22.5351 11.6622L24.5789 9.93876L21.9615 9.80642ZM22.7338 13.6259L21.0251 12.4476L19.3191 13.6259L19.8571 11.5537L18.2526 10.2014L20.3068 10.0986L21.0264 8.0977L21.7461 10.0979L23.8003 10.2008L22.1957 11.5533L22.7338 13.6259Z" fill="#455A64" stroke="#455A64" stroke-width="0.2"/>
</svg>
