<svg width="30" height="30" viewBox="0 0 30 30" fill="none" xmlns="http://www.w3.org/2000/svg">
<rect width="30" height="30" fill="#F3F4F8"/>
<path fill-rule="evenodd" clip-rule="evenodd" d="M23.1578 9.99985H7.83937C7.41968 9.99985 6.99998 10.3675 6.99998 10.919V19.0836C6.99998 19.5432 7.33574 20.0027 7.83937 20.0027H23.1578C23.5775 20.0027 23.9972 19.6351 23.9972 19.0836V10.827C23.9132 10.3675 23.5775 9.99984 23.1578 9.99984V9.99985Z" fill="#B4B9F8" stroke="#455A64"/>
<path fill-rule="evenodd" clip-rule="evenodd" d="M21.1146 15.5099C21.0773 15.9263 20.9318 16.251 20.6778 16.4842C20.4239 16.7174 20.0862 16.834 19.6647 16.834C19.3701 16.834 19.1107 16.7603 18.8864 16.6129C18.6621 16.4655 18.489 16.256 18.3671 15.9844C18.2452 15.7127 18.1817 15.3974 18.1766 15.0382V14.6737C18.1766 14.3056 18.2384 13.9812 18.362 13.7007C18.4856 13.4202 18.6629 13.2039 18.894 13.052C19.1251 12.9002 19.3921 12.8242 19.6951 12.8242C20.1031 12.8242 20.4315 12.9413 20.6804 13.1753C20.9292 13.4094 21.074 13.74 21.1146 14.1671H20.4747C20.4442 13.8865 20.3668 13.6842 20.2424 13.56C20.1179 13.4358 19.9355 13.3737 19.6951 13.3737C19.4158 13.3737 19.2013 13.4814 19.0514 13.6967C18.9016 13.912 18.825 14.2278 18.8216 14.6442V14.9899C18.8216 15.4116 18.8932 15.7333 19.0362 15.9549C19.1793 16.1764 19.3887 16.2872 19.6647 16.2872C19.9169 16.2872 20.1065 16.2274 20.2335 16.1076C20.3604 15.9879 20.4409 15.7887 20.4747 15.5099L21.1146 15.5099ZM14.7348 14.5209H15.3645C15.5643 14.5209 15.7204 14.4731 15.833 14.3775C15.9456 14.2819 16.0019 14.1466 16.0019 13.9715C16.0019 13.7785 15.9498 13.6391 15.8457 13.5533C15.7416 13.4676 15.5795 13.4247 15.3594 13.4247H14.7348L14.7348 14.5209ZM14.7348 15.0191V16.2386H15.4483C15.6498 16.2386 15.8072 16.1859 15.9206 16.0805C16.034 15.9751 16.0907 15.8286 16.0907 15.6409C16.0907 15.2353 15.8944 15.028 15.5016 15.0191L14.7348 15.0191ZM14.0923 16.7804V12.8778H15.3594C15.7776 12.8778 16.0958 12.9663 16.3142 13.1432C16.5326 13.3201 16.6418 13.5837 16.6418 13.9339C16.6418 14.1126 16.5961 14.2734 16.5047 14.4164C16.4132 14.5593 16.2795 14.6701 16.1035 14.7487C16.3032 14.8059 16.4577 14.9136 16.5669 15.0717C16.6761 15.2298 16.7307 15.4197 16.7307 15.6413C16.7307 16.0076 16.6194 16.289 16.3967 16.4856C16.1741 16.6821 15.8555 16.7804 15.4407 16.7804L14.0923 16.7804ZM10.5279 15.3251H11.5995L11.0637 13.7061L10.5279 15.3251ZM11.7805 15.8718H10.3483L10.0487 16.7804H9.38086L10.7775 12.8778H11.3539L12.753 16.7804H12.0827L11.7805 15.8718Z" fill="#455A64"/>
</svg>
