<svg width="30" height="30" viewBox="0 0 30 30" fill="none" xmlns="http://www.w3.org/2000/svg">
<rect width="30" height="30" fill="#F3F4F8"/>
<path fill-rule="evenodd" clip-rule="evenodd" d="M15.2077 8.79416C19.1884 8.79416 22.4154 11.818 22.4154 15.5481C22.4154 19.2782 19.1884 22.302 15.2077 22.302C11.227 22.302 8 19.2782 8 15.5481C8 11.818 11.227 8.79416 15.2077 8.79416Z" fill="#FBB5AF"/>
<path fill-rule="evenodd" clip-rule="evenodd" d="M15.5 8C11.357 8 8 11.357 8 15.5C8 19.643 11.357 23 15.5 23C19.643 23 23 19.643 23 15.5C23 11.357 19.643 8 15.5 8ZM15.5 9.00963C17.2344 9.00963 18.8642 9.68391 20.0902 10.9099C21.3161 12.1358 21.9904 13.7656 21.9904 15.5C21.9904 17.2344 21.3161 18.8642 20.0902 20.0902C18.8642 21.3161 17.2344 21.9904 15.5 21.9904C13.7656 21.9904 12.1358 21.3161 10.9099 20.0902C9.6839 18.8642 9.00962 17.2344 9.00962 15.5C9.00962 13.7656 9.6839 12.1358 10.9099 10.9099C12.1358 9.68391 13.7656 9.00963 15.5 9.00963Z" fill="#455A64"/>
<path fill-rule="evenodd" clip-rule="evenodd" d="M15.5482 12.3696C13.7938 12.3696 12.3699 13.7935 12.3699 15.548C12.3699 17.3024 13.7938 18.7263 15.5482 18.7263C17.3027 18.7263 18.7266 17.3024 18.7266 15.548C18.7266 13.7935 17.3027 12.3696 15.5482 12.3696Z" fill="#455A64"/>
</svg>
